<svg width="64" height="64" viewBox="0 0 64 64" fill="none" xmlns="http://www.w3.org/2000/svg">
<path fill-rule="evenodd" clip-rule="evenodd" d="M32 57.8868C46.2969 57.8868 57.8868 46.2969 57.8868 32C57.8868 17.7031 46.2969 6.11321 32 6.11321C17.7031 6.11321 6.11321 17.7031 6.11321 32C6.11321 46.2969 17.7031 57.8868 32 57.8868ZM32 60C47.464 60 60 47.464 60 32C60 16.536 47.464 4 32 4C16.536 4 4 16.536 4 32C4 47.464 16.536 60 32 60Z" fill="#007D88"/>
<path fill-rule="evenodd" clip-rule="evenodd" d="M36.7521 46.8313C37.0225 47.4134 36.7697 48.1046 36.1875 48.3749C33.4969 49.6243 30.8312 49.8537 28.6472 48.8511C26.4318 47.8343 24.9875 45.678 24.5131 42.7521L26.8076 42.3801C27.1909 44.7439 28.2737 46.122 29.6169 46.7385C30.9914 47.3694 32.9156 47.3313 35.2085 46.2666C35.7907 45.9963 36.4818 46.2491 36.7521 46.8313Z" fill="#007D88"/>
<path fill-rule="evenodd" clip-rule="evenodd" d="M33.5848 35.1698V30.4151H35.698V37.283H29.8867V35.1698H33.5848Z" fill="#007D88"/>
<path d="M46.7923 25.1321C46.7923 26.2992 45.8462 27.2453 44.6791 27.2453C43.512 27.2453 42.5659 26.2992 42.5659 25.1321C42.5659 23.965 43.512 23.0189 44.6791 23.0189C45.8462 23.0189 46.7923 23.965 46.7923 25.1321Z" fill="#007D88"/>
<path d="M21.4339 25.1321C21.4339 26.2992 20.4878 27.2453 19.3207 27.2453C18.1536 27.2453 17.2075 26.2992 17.2075 25.1321C17.2075 23.965 18.1536 23.0189 19.3207 23.0189C20.4878 23.0189 21.4339 23.965 21.4339 25.1321Z" fill="#007D88"/>
</svg>
