<svg width="64" height="64" viewBox="0 0 64 64" fill="none" xmlns="http://www.w3.org/2000/svg">
<path d="M47.4935 11.92C47.2801 11.92 47.0668 11.8667 46.8801 11.76C41.7601 9.11999 37.3335 7.99999 32.0268 7.99999C26.7468 7.99999 21.7335 9.25333 17.1735 11.76C16.5335 12.1067 15.7335 11.8667 15.3601 11.2267C15.0135 10.5867 15.2535 9.75999 15.8935 9.41333C20.8535 6.71999 26.2935 5.33333 32.0268 5.33333C37.7068 5.33333 42.6668 6.58666 48.1068 9.38666C48.7735 9.73333 49.0135 10.5333 48.6668 11.1733C48.4268 11.6533 47.9735 11.92 47.4935 11.92V11.92ZM9.33346 25.92C9.06679 25.92 8.80012 25.84 8.56012 25.68C7.94679 25.2533 7.81346 24.4267 8.24012 23.8133C10.8801 20.08 14.2401 17.1467 18.2401 15.0933C26.6135 10.7733 37.3335 10.7467 45.7335 15.0667C49.7335 17.12 53.0935 20.0267 55.7335 23.7333C56.1601 24.32 56.0268 25.1733 55.4135 25.6C54.8001 26.0267 53.9735 25.8933 53.5468 25.28C51.1468 21.92 48.1068 19.28 44.5068 17.44C36.8535 13.52 27.0668 13.52 19.4401 17.4667C15.8135 19.3333 12.7735 22 10.3735 25.36C10.1601 25.7333 9.76012 25.92 9.33346 25.92V25.92ZM26.0001 58.1067C25.6535 58.1067 25.3068 57.9733 25.0668 57.7067C22.7468 55.3867 21.4935 53.8933 19.7068 50.6667C17.8668 47.3867 16.9068 43.3867 16.9068 39.0933C16.9068 31.1733 23.6801 24.72 32.0001 24.72C40.3201 24.72 47.0935 31.1733 47.0935 39.0933C47.0935 39.84 46.5068 40.4267 45.7601 40.4267C45.0135 40.4267 44.4268 39.84 44.4268 39.0933C44.4268 32.64 38.8535 27.3867 32.0001 27.3867C25.1468 27.3867 19.5735 32.64 19.5735 39.0933C19.5735 42.9333 20.4268 46.48 22.0535 49.36C23.7601 52.4267 24.9335 53.7333 26.9868 55.8133C27.4935 56.3467 27.4935 57.1733 26.9868 57.7067C26.6935 57.9733 26.3468 58.1067 26.0001 58.1067ZM45.1201 53.1733C41.9468 53.1733 39.1468 52.3733 36.8535 50.8C32.8801 48.1067 30.5068 43.7333 30.5068 39.0933C30.5068 38.3467 31.0935 37.76 31.8401 37.76C32.5868 37.76 33.1735 38.3467 33.1735 39.0933C33.1735 42.8533 35.0935 46.4 38.3468 48.5867C40.2401 49.8667 42.4535 50.48 45.1201 50.48C45.7601 50.48 46.8268 50.4 47.8935 50.2133C48.6135 50.08 49.3068 50.56 49.4401 51.3067C49.5735 52.0267 49.0935 52.72 48.3468 52.8533C46.8268 53.1467 45.4935 53.1733 45.1201 53.1733V53.1733ZM39.7601 58.6667C39.6535 58.6667 39.5201 58.64 39.4135 58.6133C35.1735 57.44 32.4001 55.8667 29.4935 53.0133C25.7601 49.3067 23.7068 44.3733 23.7068 39.0933C23.7068 34.7733 27.3868 31.2533 31.9201 31.2533C36.4535 31.2533 40.1335 34.7733 40.1335 39.0933C40.1335 41.9467 42.6135 44.2667 45.6801 44.2667C48.7468 44.2667 51.2268 41.9467 51.2268 39.0933C51.2268 29.04 42.5601 20.88 31.8935 20.88C24.3201 20.88 17.3868 25.0933 14.2668 31.6267C13.2268 33.7867 12.6935 36.32 12.6935 39.0933C12.6935 41.1733 12.8801 44.4533 14.4801 48.72C14.7468 49.4133 14.4001 50.1867 13.7068 50.4267C13.0135 50.6933 12.2401 50.32 12.0001 49.6533C10.6935 46.16 10.0535 42.6933 10.0535 39.0933C10.0535 35.8933 10.6668 32.9867 11.8668 30.4533C15.4135 23.0133 23.2801 18.1867 31.8935 18.1867C44.0268 18.1867 53.8935 27.5467 53.8935 39.0667C53.8935 43.3867 50.2135 46.9067 45.6801 46.9067C41.1468 46.9067 37.4668 43.3867 37.4668 39.0667C37.4668 36.2133 34.9868 33.8933 31.9201 33.8933C28.8535 33.8933 26.3735 36.2133 26.3735 39.0667C26.3735 43.6267 28.1335 47.8933 31.3601 51.0933C33.8935 53.6 36.3201 54.9867 40.0801 56.0267C40.8001 56.2133 41.2001 56.96 41.0135 57.6533C40.8801 58.2667 40.3201 58.6667 39.7601 58.6667V58.6667Z" fill="#007D88"/>
</svg>
